<svg width="272" height="70" viewBox="0 0 272 70" fill="none" xmlns="http://www.w3.org/2000/svg">
<path d="M15.3292 1H228.582C232.232 1 235.645 2.8107 237.691 5.83336L268.494 51.3334C273.439 58.638 268.206 68.5 259.385 68.5H12.7105C6.38692 68.5 1.36533 63.1811 1.72868 56.868L4.34738 11.368C4.68235 5.54798 9.4996 1 15.3292 1Z" fill="#242424"/>
<path d="M15.3292 1H228.582C232.232 1 235.645 2.8107 237.691 5.83336L268.494 51.3334C273.439 58.638 268.206 68.5 259.385 68.5H12.7105C6.38692 68.5 1.36533 63.1811 1.72868 56.868L4.34738 11.368C4.68235 5.54798 9.4996 1 15.3292 1Z" fill="url(#paint0_linear_6_2839)" fill-opacity="0.2"/>
<path d="M15.3292 1H228.582C232.232 1 235.645 2.8107 237.691 5.83336L268.494 51.3334C273.439 58.638 268.206 68.5 259.385 68.5H12.7105C6.38692 68.5 1.36533 63.1811 1.72868 56.868L4.34738 11.368C4.68235 5.54798 9.4996 1 15.3292 1Z" fill="url(#paint1_linear_6_2839)" fill-opacity="0.1"/>
<path d="M15.3292 1H228.582C232.232 1 235.645 2.8107 237.691 5.83336L268.494 51.3334C273.439 58.638 268.206 68.5 259.385 68.5H12.7105C6.38692 68.5 1.36533 63.1811 1.72868 56.868L4.34738 11.368C4.68235 5.54798 9.4996 1 15.3292 1Z" stroke="url(#paint2_linear_6_2839)" stroke-width="2"/>
<defs>
<linearGradient id="paint0_linear_6_2839" x1="138" y1="0" x2="138" y2="60" gradientUnits="userSpaceOnUse">
<stop stop-opacity="0"/>
<stop offset="1"/>
</linearGradient>
<linearGradient id="paint1_linear_6_2839" x1="138" y1="0" x2="138" y2="60" gradientUnits="userSpaceOnUse">
<stop stop-color="white"/>
<stop offset="1" stop-color="white" stop-opacity="0"/>
</linearGradient>
<linearGradient id="paint2_linear_6_2839" x1="138" y1="0" x2="138" y2="60" gradientUnits="userSpaceOnUse">
<stop stop-color="white"/>
<stop offset="0.854167" stop-color="white" stop-opacity="0"/>
</linearGradient>
</defs>
</svg>
