<svg width="270" height="75" viewBox="0 0 270 75" fill="none" xmlns="http://www.w3.org/2000/svg">
<path d="M270 14C270 6.26801 263.732 0 256 0H46.4161C41.8054 0 37.4903 2.27015 34.8786 6.06983L2.57354 53.0698C-3.81128 62.359 2.83914 75 14.111 75H256C263.732 75 270 68.732 270 61V14Z" fill="#131313"/>
<path d="M270 14C270 6.26801 263.732 0 256 0H46.4161C41.8054 0 37.4903 2.27015 34.8786 6.06983L2.57354 53.0698C-3.81128 62.359 2.83914 75 14.111 75H256C263.732 75 270 68.732 270 61V14Z" fill="url(#paint0_linear_6_2842)" fill-opacity="0.2"/>
<path d="M270 14C270 6.26801 263.732 0 256 0H46.4161C41.8054 0 37.4903 2.27015 34.8786 6.06983L2.57354 53.0698C-3.81128 62.359 2.83914 75 14.111 75H256C263.732 75 270 68.732 270 61V14Z" fill="url(#paint1_linear_6_2842)" fill-opacity="0.1"/>
<path d="M256 1H46.4161C42.1347 1 38.1279 3.108 35.7027 6.63627L3.39764 53.6363C-2.53113 62.2619 3.64429 74 14.111 74H256C263.18 74 269 68.1797 269 61V14C269 6.8203 263.18 1 256 1Z" stroke="url(#paint2_linear_6_2842)" stroke-opacity="0.5" stroke-width="2"/>
<defs>
<linearGradient id="paint0_linear_6_2842" x1="136" y1="0" x2="136" y2="60" gradientUnits="userSpaceOnUse">
<stop stop-opacity="0"/>
<stop offset="1"/>
</linearGradient>
<linearGradient id="paint1_linear_6_2842" x1="136" y1="0" x2="136" y2="60" gradientUnits="userSpaceOnUse">
<stop stop-color="white"/>
<stop offset="1" stop-color="white" stop-opacity="0"/>
</linearGradient>
<linearGradient id="paint2_linear_6_2842" x1="136" y1="0" x2="136" y2="60" gradientUnits="userSpaceOnUse">
<stop stop-color="white"/>
<stop offset="0.854167" stop-color="white" stop-opacity="0"/>
</linearGradient>
</defs>
</svg>
