<svg width="5" height="21" viewBox="0 0 5 21" fill="none" xmlns="http://www.w3.org/2000/svg">
<path d="M2.14671 20.0989C1.25937 20.0989 0.540048 19.3796 0.540048 18.4922V8.14741C0.540048 7.26008 1.25937 6.54076 2.14671 6.54076V6.54076C3.03404 6.54076 3.75336 7.26008 3.75336 8.14741V18.4922C3.75336 19.3796 3.03404 20.0989 2.14671 20.0989V20.0989ZM2.15558 3.68437C1.64666 3.68437 1.20875 3.51666 0.841851 3.18123C0.474953 2.83993 0.291504 2.43095 0.291504 1.95429C0.291504 1.47176 0.474953 1.06278 0.841851 0.727353C1.20875 0.386046 1.64666 0.215393 2.15558 0.215393C2.67042 0.215393 3.10833 0.386046 3.46931 0.727353C3.83621 1.06278 4.01966 1.47176 4.01966 1.95429C4.01966 2.43095 3.83621 2.83993 3.46931 3.18123C3.10833 3.51666 2.67042 3.68437 2.15558 3.68437Z" fill="#D9D9D9"/>
</svg>
