<svg width="21" height="22" viewBox="0 0 21 22" fill="none" xmlns="http://www.w3.org/2000/svg">
<path d="M20.0046 13.6671L19.5226 13.2455C18.8781 12.6816 18.5959 11.8252 18.5959 10.9688V10.9688V10.9688C18.5959 10.1125 18.8781 9.25601 19.5227 8.69223L20.0046 8.27062C20.1193 8.17016 20.2014 8.03636 20.2399 7.88702C20.2785 7.73767 20.2717 7.57985 20.2205 7.43454L20.1996 7.37279C19.7819 6.17733 19.1559 5.06921 18.3522 4.10214L18.3104 4.05226C18.2128 3.93481 18.0827 3.85038 17.9373 3.8101C17.7919 3.76982 17.6379 3.77558 17.4958 3.82661L16.8932 4.04608C16.1 4.33502 15.2233 4.15187 14.4959 3.72334V3.72334C13.783 3.30339 13.2097 2.64971 13.0626 1.83553L12.9352 1.13076C12.9077 0.978846 12.8357 0.839089 12.7288 0.730056C12.6218 0.621023 12.485 0.547876 12.3365 0.520331L12.2738 0.508455C11.0669 0.285186 9.79509 0.285186 8.58823 0.508455L8.52557 0.520331C8.37703 0.547876 8.24019 0.621023 8.13323 0.730056C8.02628 0.839089 7.95428 0.978846 7.92678 1.13076L7.79507 1.85849C7.64909 2.66506 7.08235 3.31486 6.37623 3.73111V3.73111C5.65074 4.15877 4.77708 4.34025 3.98574 4.05215L3.36626 3.82661C3.22414 3.77517 3.07009 3.76921 2.92458 3.80951C2.77907 3.84981 2.64899 3.93448 2.55163 4.05226L2.50985 4.10214C1.70751 5.07024 1.08175 6.17808 0.662435 7.37279L0.641547 7.43454C0.537107 7.73144 0.62298 8.06397 0.857388 8.27062L1.36989 8.71826C2.00682 9.27459 2.28705 10.1208 2.28705 10.9665V10.9665V10.9665C2.28705 11.8121 2.0073 12.659 1.37121 13.2162L0.86203 13.6623C0.747369 13.7628 0.665304 13.8966 0.626749 14.0459C0.588193 14.1953 0.594973 14.3531 0.646188 14.4984L0.667076 14.5601C1.08716 15.7549 1.70683 16.8593 2.5145 17.8308L2.55627 17.8807C2.65387 17.9981 2.78396 18.0826 2.92938 18.1228C3.0748 18.1631 3.22874 18.1574 3.3709 18.1063L3.99382 17.8795C4.78296 17.5922 5.65563 17.7757 6.37851 18.2031V18.2031C7.08569 18.6213 7.65413 19.2701 7.80045 20.0785L7.93143 20.8022C7.95892 20.9541 8.03092 21.0938 8.13788 21.2029C8.24483 21.3119 8.38167 21.3851 8.53021 21.4126L8.59288 21.4245C9.81161 21.649 11.0597 21.649 12.2784 21.4245L12.3411 21.4126C12.4896 21.3851 12.6265 21.3119 12.7334 21.2029C12.8404 21.0938 12.9124 20.9541 12.9399 20.8022L13.0676 20.0954C13.2145 19.2822 13.7865 18.6286 14.4989 18.2097V18.2097C15.2276 17.7811 16.1053 17.5982 16.8996 17.8875L17.5004 18.1063C17.6425 18.1578 17.7966 18.1637 17.9421 18.1234C18.0876 18.0831 18.2177 17.9985 18.315 17.8807L18.3568 17.8308C19.1645 16.8546 19.7842 15.7549 20.2042 14.5601L20.2251 14.4984C20.3249 14.2039 20.239 13.8737 20.0046 13.6671ZM10.4357 14.9069C8.18208 14.9069 6.35555 13.0376 6.35555 10.7313C6.35555 8.425 8.18208 6.55572 10.4357 6.55572C12.6892 6.55572 14.5158 8.425 14.5158 10.7313C14.5158 13.0376 12.6892 14.9069 10.4357 14.9069Z" fill="#D9D9D9"/>
</svg>
