<svg width="23" height="24" viewBox="0 0 23 24" fill="none" xmlns="http://www.w3.org/2000/svg">
<path d="M2.40283 13.3165V10.4411C2.40283 9.30996 3.31979 8.393 4.45092 8.393C5.43558 8.393 6.39875 8.10503 7.22181 7.56455L7.78525 7.19456C10.6464 5.31572 14.4496 7.36813 14.4496 10.7911V12.4032V13.0962C14.4496 16.503 10.6346 18.5182 7.82066 16.5979L7.25523 16.212C6.42102 15.6428 5.43454 15.3382 4.42459 15.3382C3.30801 15.3382 2.40283 14.4331 2.40283 13.3165Z" stroke="#D9D9D9" stroke-width="3"/>
<path d="M17.7197 16.5778C19.7565 16.5778 21.4076 14.5283 21.4076 12.0001C21.4076 9.47185 19.7565 7.42233 17.7197 7.42233" stroke="#D9D9D9" stroke-width="3"/>
</svg>
